<?xml version="1.0" encoding="UTF-8" standalone="no"?>
<!-- Created with Inkscape (http://www.inkscape.org/) -->

<svg
   xmlns:dc="http://purl.org/dc/elements/1.1/"
   xmlns:cc="http://creativecommons.org/ns#"
   xmlns:rdf="http://www.w3.org/1999/02/22-rdf-syntax-ns#"
   xmlns:svg="http://www.w3.org/2000/svg"
   xmlns="http://www.w3.org/2000/svg"
   xmlns:sodipodi="http://sodipodi.sourceforge.net/DTD/sodipodi-0.dtd"
   xmlns:inkscape="http://www.inkscape.org/namespaces/inkscape"
   width="210mm"
   height="297mm"
   viewBox="0 0 744.09448819 1052.3622047"
   id="svg2"
   version="1.1"
   inkscape:version="0.91 r13725"
   sodipodi:docname="drawing.svg">
  <defs
     id="defs4" />
  <sodipodi:namedview
     id="base"
     pagecolor="#ffffff"
     bordercolor="#666666"
     borderopacity="1.0"
     inkscape:pageopacity="0.0"
     inkscape:pageshadow="2"
     inkscape:zoom="0.98994949"
     inkscape:cx="173.20056"
     inkscape:cy="650.58532"
     inkscape:document-units="px"
     inkscape:current-layer="layer1"
     showgrid="false"
     inkscape:window-width="1680"
     inkscape:window-height="988"
     inkscape:window-x="-8"
     inkscape:window-y="-8"
     inkscape:window-maximized="1" />
  <metadata
     id="metadata7">
    <rdf:RDF>
      <cc:Work
         rdf:about="">
        <dc:format>image/svg+xml</dc:format>
        <dc:type
           rdf:resource="http://purl.org/dc/dcmitype/StillImage" />
        <dc:title></dc:title>
      </cc:Work>
    </rdf:RDF>
  </metadata>
  <g
     inkscape:label="Layer 1"
     inkscape:groupmode="layer"
     id="layer1">
    <flowRoot
       xml:space="preserve"
       id="flowRoot4136"
       style="font-style:normal;font-variant:normal;font-weight:normal;font-stretch:normal;font-size:73.55358124px;line-height:125%;font-family:'Vista Sans OT Reg';-inkscape-font-specification:'Vista Sans OT Reg';letter-spacing:0px;word-spacing:0px;fill:#ffffff;fill-opacity:1;stroke:none;stroke-width:1px;stroke-linecap:butt;stroke-linejoin:miter;stroke-opacity:1;"
       inkscape:export-xdpi="95"
       inkscape:export-ydpi="95"
       transform="translate(30.304576,19.192899)"><flowRegion
         id="flowRegion4138"><rect
           id="rect4140"
           width="964.04688"
           height="404.93686"
           x="98.688873"
           y="161.84714"
           style="fill:#ffffff;fill-opacity:1;" /></flowRegion><flowPara
         id="flowPara4142"
         style="font-style:normal;font-variant:normal;font-weight:normal;font-stretch:normal;font-family:Abys;-inkscape-font-specification:Abys;fill:#ffffff;fill-opacity:1;">Les Oufs LAN</flowPara></flowRoot>    <flowRoot
       xml:space="preserve"
       id="flowRoot4144"
       style="font-style:normal;font-variant:normal;font-weight:normal;font-stretch:normal;font-size:40px;line-height:125%;font-family:'Vista Sans OT Reg';-inkscape-font-specification:'Vista Sans OT Reg';letter-spacing:0px;word-spacing:0px;fill:#ffffff;fill-opacity:1;stroke:none;stroke-width:1px;stroke-linecap:butt;stroke-linejoin:miter;stroke-opacity:1"
       inkscape:export-xdpi="95"
       inkscape:export-ydpi="95"
       transform="translate(77.829718,-20.203051)"><flowRegion
         id="flowRegion4146"><rect
           id="rect4148"
           width="533.36053"
           height="117.1777"
           x="154.55334"
           y="283.63611"
           style="fill:#ffffff;fill-opacity:1" /></flowRegion><flowPara
         id="flowPara4150"
         style="font-style:normal;font-variant:normal;font-weight:normal;font-stretch:normal;font-family:Abys;-inkscape-font-specification:Abys;fill:#ffffff;fill-opacity:1">serveur #1</flowPara></flowRoot>    <path
       style="fill:#ffffff"
       d="m 248.76458,508.06363 c -1.06458,-1.71573 -2.0141,-3.3241 -2.11006,-3.57415 -0.16152,-0.42092 1.75461,-0.45464 25.83631,-0.45464 l 26.01076,0 0,-8.93539 c 0,-8.09205 -0.0425,-8.93538 -0.45012,-8.93538 -0.24756,0 -2.07244,0.25378 -4.05529,0.56397 -1.98284,0.31019 -5.21354,0.77515 -7.17932,1.03324 l -3.57416,0.46927 -0.0798,2.10357 -0.0799,2.10357 -18.20333,0.10019 c -10.01182,0.0551 -18.25902,0.0622 -18.32709,0.0157 -0.0681,-0.0465 0.0931,-0.89855 0.35827,-1.89355 0.26513,-0.99498 0.44455,-1.83403 0.39871,-1.86454 -0.0458,-0.0305 -1.16268,-0.20512 -2.48187,-0.38802 -12.57106,-1.74302 -21.5702,-9.73204 -24.68613,-21.91524 -1.85979,-7.27169 -1.85562,-17.72015 0.011,-27.47953 2.87161,-15.01415 10.1011,-31.22191 15.03365,-33.70388 0.72467,-0.36465 1.42578,-0.83418 1.55802,-1.04342 0.13224,-0.20923 1.48719,-1.932 3.011,-3.82837 5.13518,-6.3907 9.57073,-10.26603 12.20162,-10.66056 1.3187,-0.19775 1.60523,-0.5066 3.09774,-3.33902 1.77,-3.35903 3.91072,-4.80982 7.14219,-4.84036 1.82199,-0.0172 2.0619,0.061 7.09566,2.3126 2.99216,1.33841 2.95917,4.52162 -0.0909,8.76704 -1.20156,1.67249 -5.94364,11.42538 -7.80422,16.05072 -3.6355,9.03773 -5.85027,16.76212 -6.90983,24.09921 -0.18561,1.28532 -0.34882,5.12066 -0.36269,8.52298 -0.0224,5.48208 -0.0836,6.29554 -0.5385,7.14831 -1.2632,2.3681 -2.57004,3.13446 -5.32387,3.12203 -1.72642,-0.008 -2.25754,-0.14215 -4.03539,-1.02082 -2.42762,-1.19979 -4.37514,-2.99765 -5.18895,-4.79019 -0.47295,-1.04173 -0.60733,-1.94809 -0.68152,-4.59679 l -0.0924,-3.29922 -1.33087,-2.61188 c -0.73198,-1.43654 -1.73797,-3.69696 -2.23552,-5.02317 -0.50366,-1.34247 -1.00927,-2.30667 -1.14067,-2.17527 -0.43552,0.43552 -3.98481,8.95058 -5.12057,12.28473 -2.71529,7.97096 -3.75908,13.93731 -3.53527,20.20772 0.16994,4.76095 0.75184,7.26577 2.52293,10.85993 1.495,3.03388 3.13488,5.14088 5.5721,7.15929 3.41738,2.83015 10.16221,5.59656 13.92805,5.71263 l 1.62266,0.05 9.5712,-36.15394 c 5.26416,-19.88467 9.90576,-36.95813 10.31465,-37.94102 4.86878,-11.70345 12.19047,-20.12028 21.40829,-24.61046 5.30764,-2.58546 10.00903,-3.67669 16.80563,-3.90074 8.79438,-0.2899 16.90145,1.15328 25.46562,4.53325 l 3.23048,1.27496 0,20.52098 0,20.52097 -2.32204,0.16387 c -2.85631,0.20158 -6.68116,1.42664 -9.36269,2.99879 -2.33024,1.36619 -6.95641,5.90648 -8.62642,8.46628 -3.84376,5.89175 -6.53407,14.08498 -7.46911,22.74687 -0.55011,5.09601 0.001,17.6612 0.81417,18.56109 0.10197,0.11286 1.97362,-0.11248 4.15923,-0.50073 2.1856,-0.38826 4.37591,-0.77515 4.86736,-0.85977 l 0.89354,-0.15384 10e-4,-2.64464 0.001,-2.64464 0.99896,-0.4124 0.99897,-0.41241 0.0354,-5.08629 c 0.0335,-4.81 0.0771,-5.20578 0.80259,-7.28578 2.12511,-6.09253 6.52938,-10.41429 12.2827,-12.0526 5.38273,-1.5328 12.25055,-1.10847 16.90849,1.04468 4.00381,1.85077 6.67221,4.54189 8.65447,8.72817 1.3571,2.86599 1.93153,5.69365 1.92692,9.4852 -0.008,6.92563 -2.42714,13.14792 -6.86976,17.67297 -2.32182,2.3649 -4.60433,3.81873 -7.67169,4.88645 -1.83148,0.63752 -2.52835,0.72858 -5.66266,0.73995 -2.98952,0.0108 -3.91144,-0.0915 -5.63617,-0.62582 -2.54931,-0.78973 -5.23339,-2.34466 -7.28675,-4.22132 l -1.56297,-1.42846 -2.66287,0.0715 -2.66287,0.0715 -0.49454,-1.05125 c -0.272,-0.5782 -0.78992,-1.56097 -1.15094,-2.18396 l -0.6564,-1.13271 -4.75201,1.17091 c -4.0184,0.99015 -4.7647,1.25393 -4.83426,1.70864 -0.1336,0.87327 2.23679,7.69555 3.65396,10.51653 3.99573,7.95384 9.47968,13.0158 16.22533,14.97682 0.862,0.25059 2.6989,0.62073 4.082,0.82254 2.16522,0.31592 -3.37689,0.37102 -39.87536,0.39645 l -42.39003,0.0295 -1.93559,-3.11952 z m 44.10085,-24.10935 c 2.72185,-0.30373 5.10348,-0.60736 5.29249,-0.67474 0.2712,-0.0967 0.34367,-4.93677 0.34367,-22.95073 l 0,-22.82823 -7.69817,0 -7.69818,0 0,23.68497 0,23.68496 2.40568,-0.182 c 1.32312,-0.10009 4.63265,-0.4305 7.35451,-0.73423 z m 16.22116,-57.57404 c 11.29768,-3.3451 20.46794,-12.43411 19.11596,-18.9466 -0.39259,-1.89106 -1.16215,-3.32621 -2.57775,-4.80717 -4.58271,-4.79432 -14.54113,-8.09418 -24.51132,-8.12218 -6.22015,-0.0174 -9.67491,1.05525 -12.41624,3.85526 -1.96752,2.00964 -2.62731,3.80198 -2.76951,7.52352 -0.0924,2.41882 9e-5,3.31554 0.57064,5.53138 1.51706,5.89189 5.45361,12.15558 8.91386,14.18342 2.40892,1.41173 4.00702,1.74635 7.76326,1.62554 2.68657,-0.0864 3.97676,-0.27044 5.9111,-0.84317 z m 39.17823,84.3562 c 9.68069,-1.40074 16.58173,-7.26377 21.22401,-18.03164 4.32268,-10.02654 5.53342,-24.09616 3.08826,-35.88758 -0.78335,-3.7776 -2.52488,-9.07514 -3.95506,-12.03086 -4.69649,-9.70613 -13.19439,-16.05376 -21.52569,-16.07892 l -1.58087,-0.005 0,-20.49243 0,-20.49242 1.30594,-0.5707 c 2.66089,-1.16283 7.31819,-2.72613 10.45119,-3.50812 6.33207,-1.58047 8.19232,-1.80074 15.18649,-1.7982 6.97994,0.002 9.51406,0.34702 14.26938,1.93979 11.57736,3.87774 21.21906,13.95087 26.28746,27.46371 0.69898,1.86353 21.72875,81.20639 21.55382,81.32 -0.0621,0.0403 -8.37119,0.0283 -18.46474,-0.0266 l -18.35191,-0.0999 0,-27.46865 0,-27.46865 -7.56071,0 -7.56071,0 0,33.26713 0,33.26713 25.98135,0 c 14.28975,0 25.98136,0.0769 25.98136,0.17088 0,0.094 -0.93957,1.70235 -2.08792,3.57415 l -2.08793,3.40328 -42.3828,-0.0344 c -37.13056,-0.0301 -42.05913,-0.0812 -39.77092,-0.41232 z m 34.72495,-83.96153 c 0.98488,-0.3042 2.38977,-0.964 3.12198,-1.46621 3.02201,-2.07277 6.21164,-6.94297 7.95072,-12.13986 1.79881,-5.37534 1.62309,-10.09184 -0.50025,-13.42778 -2.3624,-3.71149 -7.812,-5.66806 -14.77963,-5.30632 -9.36338,0.48613 -18.08577,3.4016 -22.56788,7.54334 -2.50452,2.31433 -3.40482,4.12051 -3.38055,6.782 0.0212,2.32475 0.71212,4.19909 2.44098,6.62187 3.64251,5.10453 11.58824,9.96425 18.83356,11.51888 2.75495,0.59112 6.74259,0.53459 8.88107,-0.12592 z m 48.06422,24.75825 c -1.76319,-0.43807 -3.3367,-2.10667 -3.87628,-4.11055 -0.14697,-0.54578 -0.25758,-3.52732 -0.24581,-6.62565 0.0249,-6.55117 -0.33482,-9.49689 -1.96796,-16.11581 -1.2581,-5.09891 -3.20881,-10.99183 -5.40355,-16.32367 -2.02401,-4.91706 -6.35835,-13.78532 -7.64331,-15.63858 -2.28318,-3.29293 -2.85798,-5.64371 -1.80303,-7.37387 0.60517,-0.99252 1.01316,-1.2301 4.68502,-2.72812 2.8413,-1.15918 4.6634,-1.33717 6.72466,-0.65689 1.49983,0.49498 3.30241,2.26147 4.47011,4.3806 1.78817,3.24516 1.86593,3.32129 3.39255,3.32129 5.85038,0 13.25466,8.36836 16.75768,18.93964 1.57381,4.74938 2.02505,7.98352 1.8402,13.18914 -0.1115,3.13981 -0.31187,4.89357 -0.7426,6.49957 -0.65338,2.43616 -2.52243,6.59435 -3.79631,8.44587 -0.80962,1.17675 -0.8248,1.26228 -0.79765,4.4954 0.0333,3.9678 -0.36718,5.04333 -2.69938,7.24902 -2.53188,2.39456 -6.31585,3.69325 -8.89434,3.05261 z M 272.49816,393.88472 c -0.26088,-1.72317 0.2972,-13.51729 0.85029,-17.96956 3.01202,-24.24642 13.89083,-41.41939 31.96176,-50.45387 7.98179,-3.99047 17.35747,-6.31081 26.32104,-6.51408 l 3.57416,-0.0811 0.07,28.82934 c 0.0665,27.38996 0.0459,28.81991 -0.4124,28.64059 -10.04659,-3.93069 -20.84398,-5.70864 -29.35058,-4.83298 -13.97527,1.4386 -24.3497,8.42731 -31.38789,21.1444 l -1.42412,2.5732 -0.20226,-1.33599 z m 134.24795,-1.64661 c -6.31976,-11.34191 -15.59279,-18.06617 -28.10098,-20.37719 -3.49067,-0.64493 -11.83897,-0.63013 -16.0837,0.0285 -4.0781,0.63281 -10.70806,2.33598 -13.97653,3.59045 -1.4117,0.54183 -2.67984,0.98514 -2.81808,0.98514 -0.15024,0 -0.25135,-11.55004 -0.25135,-28.71217 l 0,-28.71218 0.57249,-0.1817 c 0.31488,-0.0999 2.01604,-0.099 3.78036,0.002 19.15497,1.09784 34.88787,8.95567 45.03254,22.49158 6.87868,9.17814 10.91769,20.10695 12.92583,34.97485 0.372,2.75423 0.85827,17.25571 0.61429,18.31921 -0.0604,0.26325 -0.76029,-0.7314 -1.69487,-2.40866 z"
       id="path4179"
       inkscape:connector-curvature="0" />
  </g>
</svg>
